<svg xmlns="http://www.w3.org/2000/svg" viewBox="0 0 100 100" fill="#b0bec5">
  <!-- 左脚 -->
  <ellipse cx="32" cy="18" rx="3.5" ry="4.5"/>
  <ellipse cx="24" cy="20" rx="3" ry="4"/>
  <ellipse cx="39" cy="20" rx="3" ry="4"/>
  <ellipse cx="45" cy="25" rx="2.5" ry="3.5"/>
  <ellipse cx="17" cy="25" rx="2.5" ry="3.5"/>
  <path d="M18 32 C18 32 16 45 18 58 C20 68 24 78 32 80 C40 82 44 72 44 62 C44 52 42 40 40 34 C38 30 34 28 32 28 C28 28 20 28 18 32 Z"/>
  <!-- 右脚 -->
  <ellipse cx="68" cy="18" rx="3.5" ry="4.5"/>
  <ellipse cx="61" cy="20" rx="3" ry="4"/>
  <ellipse cx="76" cy="20" rx="3" ry="4"/>
  <ellipse cx="55" cy="25" rx="2.5" ry="3.5"/>
  <ellipse cx="83" cy="25" rx="2.5" ry="3.5"/>
  <path d="M60 32 C60 32 58 45 60 58 C62 68 66 78 68 80 C76 82 80 72 82 62 C82 52 80 40 78 34 C76 30 72 28 68 28 C64 28 62 28 60 32 Z"/>
</svg>
