<svg xmlns="http://www.w3.org/2000/svg" viewBox="0 0 512 512"><path fill="#b0bec5" d="M288 32c0-17.7-14.3-32-32-32s-32 14.3-32 32V240c0 8.8-7.2 16-16 16s-16-7.2-16-16V64c0-17.7-14.3-32-32-32s-32 14.3-32 32V336c0 1.5 0 3.1 .1 4.6L67.6 268c-12.5-12.5-32.8-12.5-45.3 0s-12.5 32.8 0 45.3l74.5 74.5c8.2 8.2 14.3 18.1 18.1 29l15.2 43.6c6.6 18.8 24.4 31.6 44.5 31.6H368c53 0 96-43 96-96V192c0-17.7-14.3-32-32-32s-32 14.3-32 32v48c0 8.8-7.2 16-16 16s-16-7.2-16-16V64c0-17.7-14.3-32-32-32s-32 14.3-32 32V240c0 8.8-7.2 16-16 16s-16-7.2-16-16V32z"/></svg>
