<svg xmlns="http://www.w3.org/2000/svg" viewBox="0 0 320 512"><path fill="#b0bec5" d="M160 48a48 48 0 1 1 96 0 48 48 0 1 1-96 0zM126.5 199.3c-1 .4-1.9 .8-2.9 1.2l-8 3.5c-16.4 7.3-29 21.2-34.7 38.2l-2.6 7.8c-5.6 16.8 3.5 34.9 20.2 40.5s34.9-3.5 40.5-20.2l.7-2.1c.4-1.3 .9-2.5 1.4-3.8L152 280l-3.5-10.4c-1.4-4.2-2.2-8.5-2.4-12.9l-8.2 4.1c5.3 14.3 3.6 30.5-5.4 43.3L96 352l0 64 0 32c0 17.7 14.3 32 32 32s32-14.3 32-32l0-48 32.6-43.5 11.4 45.6 0 14 0 31.9c0 17.7 14.3 32 32 32s32-14.3 32-32l0-31.9 0-22.1c0-12.1-3.4-23.9-9.8-34.1l-30.8-49.3L240 224l-16-48-39.3 9.8c-1.2 .3-2.4 .6-3.6 1l-22.6 7.5z"/></svg>
