<svg xmlns="http://www.w3.org/2000/svg" viewBox="0 0 100 100" fill="#b0bec5">
  <!-- 头部 -->
  <circle cx="42" cy="16" r="8"/>
  <!-- 身体和手臂 -->
  <path d="M34 28 L34 55 L28 55 L28 28 Q28 24 34 24 L50 24 Q56 24 56 28 L56 42 L68 42 L68 48 L52 48 L52 28 Z"/>
  <!-- 大腿（水平坐姿） -->
  <rect x="28" y="52" width="30" height="8" rx="4"/>
  <!-- 小腿 -->
  <rect x="54" y="52" width="8" height="26" rx="4"/>
  <!-- 椅子靠背 -->
  <rect x="22" y="22" width="6" height="40" rx="3"/>
  <!-- 椅子座面 -->
  <rect x="22" y="58" width="40" height="6" rx="3"/>
  <!-- 椅子前腿 -->
  <rect x="56" y="62" width="6" height="22" rx="3"/>
  <!-- 椅子后腿 -->
  <rect x="22" y="62" width="6" height="22" rx="3"/>
</svg>
